<svg width="125" height="125" viewBox="0 0 125 125" fill="none" xmlns="http://www.w3.org/2000/svg">
<circle cx="62.5" cy="62.5" r="62.5" fill="#AA322D" fill-opacity="0.11"/>
<path d="M67.104 37.592V65.048C67.104 67.96 66.96 70.824 66.672 73.64C66.384 76.424 66.016 79.384 65.568 82.52H57.504C57.056 79.384 56.688 76.424 56.4 73.64C56.112 70.824 55.968 67.96 55.968 65.048V37.592H67.104ZM54.096 100.472C54.096 99.48 54.272 98.536 54.624 97.64C55.008 96.744 55.52 95.976 56.16 95.336C56.832 94.696 57.616 94.184 58.512 93.8C59.408 93.416 60.368 93.224 61.392 93.224C62.384 93.224 63.328 93.416 64.224 93.8C65.12 94.184 65.888 94.696 66.528 95.336C67.2 95.976 67.728 96.744 68.112 97.64C68.496 98.536 68.688 99.48 68.688 100.472C68.688 101.496 68.496 102.456 68.112 103.352C67.728 104.216 67.2 104.968 66.528 105.608C65.888 106.248 65.12 106.744 64.224 107.096C63.328 107.48 62.384 107.672 61.392 107.672C60.368 107.672 59.408 107.48 58.512 107.096C57.616 106.744 56.832 106.248 56.16 105.608C55.52 104.968 55.008 104.216 54.624 103.352C54.272 102.456 54.096 101.496 54.096 100.472Z" fill="#AA322D"/>
</svg>
