<svg width="125" height="125" viewBox="0 0 125 125" fill="none" xmlns="http://www.w3.org/2000/svg">
<circle cx="62.5" cy="62.5" r="62.5" fill="#00CE7E" fill-opacity="0.13"/>
<path d="M42.8299 43.88C43.9179 42.92 45.1019 42.008 46.3819 41.144C47.6939 40.28 49.1019 39.528 50.6059 38.888C52.1099 38.248 53.7419 37.752 55.5019 37.4C57.2619 37.016 59.1659 36.824 61.2139 36.824C63.9979 36.824 66.5259 37.208 68.7979 37.976C71.1019 38.744 73.0699 39.848 74.7019 41.288C76.3339 42.696 77.5979 44.408 78.4939 46.424C79.3899 48.44 79.8379 50.696 79.8379 53.192C79.8379 55.624 79.4859 57.736 78.7819 59.528C78.0779 61.288 77.1979 62.824 76.1419 64.136C75.0859 65.448 73.9179 66.584 72.6379 67.544C71.3899 68.504 70.2059 69.416 69.0859 70.28C67.9659 71.112 66.9899 71.944 66.1579 72.776C65.3579 73.576 64.8779 74.488 64.7179 75.512L63.6139 82.52H55.5019L54.6859 74.696C54.4939 73.192 54.7019 71.88 55.3099 70.76C55.9499 69.608 56.7819 68.568 57.8059 67.64C58.8619 66.68 60.0299 65.768 61.3099 64.904C62.5899 64.008 63.7899 63.048 64.9099 62.024C66.0299 60.968 66.9579 59.8 67.6939 58.52C68.4619 57.208 68.8459 55.656 68.8459 53.864C68.8459 52.712 68.6219 51.688 68.1739 50.792C67.7579 49.864 67.1659 49.08 66.3979 48.44C65.6299 47.768 64.7019 47.256 63.6139 46.904C62.5579 46.552 61.4059 46.376 60.1579 46.376C58.3339 46.376 56.7819 46.584 55.5019 47C54.2539 47.384 53.1819 47.832 52.2859 48.344C51.4219 48.824 50.6859 49.272 50.0779 49.688C49.4699 50.072 48.9259 50.264 48.4459 50.264C47.2939 50.264 46.4619 49.784 45.9499 48.824L42.8299 43.88ZM51.9019 100.472C51.9019 99.48 52.0779 98.536 52.4299 97.64C52.8139 96.744 53.3259 95.976 53.9659 95.336C54.6059 94.696 55.3739 94.184 56.2699 93.8C57.1659 93.416 58.1259 93.224 59.1499 93.224C60.1739 93.224 61.1179 93.416 61.9819 93.8C62.8779 94.184 63.6459 94.696 64.2859 95.336C64.9579 95.976 65.4859 96.744 65.8699 97.64C66.2539 98.536 66.4459 99.48 66.4459 100.472C66.4459 101.496 66.2539 102.456 65.8699 103.352C65.4859 104.216 64.9579 104.968 64.2859 105.608C63.6459 106.248 62.8779 106.744 61.9819 107.096C61.1179 107.48 60.1739 107.672 59.1499 107.672C58.1259 107.672 57.1659 107.48 56.2699 107.096C55.3739 106.744 54.6059 106.248 53.9659 105.608C53.3259 104.968 52.8139 104.216 52.4299 103.352C52.0779 102.456 51.9019 101.496 51.9019 100.472Z" fill="#00CE7E"/>
</svg>
